<svg xmlns="http://www.w3.org/2000/svg" xmlns:xlink="http://www.w3.org/1999/xlink" width="912" height="546" viewBox="0 0 912 546">
  <defs>
    <clipPath id="clip-path">
      <rect id="Retângulo_472" data-name="Retângulo 472" width="912" height="546" transform="translate(960 1845)" fill="#fff" stroke="#707070" stroke-width="1"/>
    </clipPath>
    <linearGradient id="linear-gradient" x1="0.5" y1="1" x2="0.5" gradientUnits="objectBoundingBox">
      <stop offset="0" stop-color="gray" stop-opacity="0.251"/>
      <stop offset="0.535" stop-color="gray" stop-opacity="0.122"/>
      <stop offset="1" stop-color="gray" stop-opacity="0.102"/>
    </linearGradient>
    <linearGradient id="linear-gradient-2" x1="0.5" y1="1" x2="0.5" y2="0" xlink:href="#linear-gradient"/>
  </defs>
  <g id="Grupo_de_máscara_48" data-name="Grupo de máscara 48" transform="translate(-960 -1845)" clip-path="url(#clip-path)">
    <g id="undraw_Firmware_jw6u_2_" data-name="undraw_Firmware_jw6u (2)" transform="translate(1017.648 1845)">
      <path id="Caminho_532" data-name="Caminho 532" d="M778.138,356.152c-26.68,33.92-16.315,83.474.639,123.16,5.676,13.287,12.1,27.345,9.7,41.594-2.929,17.424-18.48,30.166-34.808,36.918-29.764,12.31-65.383,9.376-92.732-7.638-23.635-14.7-40.561-38.614-64.6-52.648-40.228-23.486-91.432-14.617-135.114,1.561-30.9,11.446-64.691,26.33-95.4,14.369-21.608-8.417-36.544-28.9-44.682-50.616-3.929-10.484-6.781-21.832-14.284-30.142-4.461-4.94-10.282-8.447-16.246-11.4-54.452-27-123.229-12.541-176.12-42.487C78.773,358.6,55.9,320.445,45.779,280.664S36.833,199.17,39.4,158.2c1.827-29.115,5.1-60.2,23.708-82.668,19.679-23.771,53.453-32.61,83.98-28.092s58.2,20.621,82.541,39.588c30.424,23.7,58.639,53.222,95.992,62.824,25.438,6.539,52.2,2.962,78.434,1.724,43.86-2.071,87.739,2.534,131.358,7.577,41.757,4.827,83.817,10.14,123.6,23.724,28.151,9.613,50.721,27.063,77.3,39.253,17.327,7.946,36.222,10.14,52.627,20.262,20.209,12.468,38.736,34.153,33.558,59.529C817.581,326.048,792.3,338.149,778.138,356.152Z" transform="translate(-26.679 -46.304)" fill="#3cb3de" opacity="0.1"/>
      <path id="Caminho_533" data-name="Caminho 533" d="M547.372,150.337s-42.886-12.7-45.72,23.426,11.334,95.632,0,114.758-51.778,46.76-30.493,49.236,31.91,6.018,25.535,18.769-39.669,24.793-32.586,34,10.626,20.543,3.542,31.877-31.877,18.418-27.627,26.21,19.835,12.043,12.043,20.543S421.684,497,430.5,496.89" transform="translate(-26.679 -46.304)" fill="none" stroke="#535461" stroke-miterlimit="10" stroke-width="2.125"/>
      <rect id="Retângulo_473" data-name="Retângulo 473" width="108.816" height="50.465" rx="9.188" transform="translate(483.714 79.963)" fill="#3cb3de"/>
      <rect id="Retângulo_474" data-name="Retângulo 474" width="91.469" height="0.946" transform="translate(492.388 122.683)" opacity="0.1"/>
      <rect id="Retângulo_475" data-name="Retângulo 475" width="91.469" height="34.695" transform="translate(492.388 87.848)" opacity="0.3"/>
      <circle id="Elipse_44" data-name="Elipse 44" cx="12.616" cy="12.616" r="12.616" transform="translate(501.061 93.303)" opacity="0.1"/>
      <circle id="Elipse_45" data-name="Elipse 45" cx="12.616" cy="12.616" r="12.616" transform="translate(549.95 93.303)" opacity="0.1"/>
      <rect id="Retângulo_476" data-name="Retângulo 476" width="18.924" height="11.042" transform="translate(528.659 130.427)" fill="#3cb3de"/>
      <rect id="Retângulo_477" data-name="Retângulo 477" width="78.852" height="63.082" transform="translate(498.696 138.314)" fill="#3cb3de"/>
      <rect id="Retângulo_478" data-name="Retângulo 478" width="82.007" height="7.885" transform="translate(497.119 214.012)" fill="#3cb3de"/>
      <path id="Caminho_534" data-name="Caminho 534" d="M510.524,240.822v36.272h14.193V229.783H510.524Z" fill="#3cb3de"/>
      <path id="Caminho_535" data-name="Caminho 535" d="M553.1,229.783v47.312H567.3V229.783Z" fill="#3cb3de"/>
      <path id="Caminho_536" data-name="Caminho 536" d="M514.635,198.812V213.4a21.335,21.335,0,0,0-10.484,5.054,24.8,24.8,0,0,0-6.242,9.152,46.493,46.493,0,0,0-3.074,13.971,79.881,79.881,0,0,0,.873,18.743h-15.77a107.657,107.657,0,0,1,.413-22.62,60.031,60.031,0,0,1,5.061-17.928c4.569-9.583,11.067-14.782,16.777-17.606A30.985,30.985,0,0,1,514.635,198.812Z" transform="translate(-26.679 -46.304)" fill="#3cb3de"/>
      <rect id="Retângulo_479" data-name="Retângulo 479" width="14.193" height="11.039" transform="translate(510.524 229.783)" opacity="0.3"/>
      <rect id="Retângulo_480" data-name="Retângulo 480" width="14.193" height="14.193" transform="translate(510.524 250.284)" opacity="0.3"/>
      <rect id="Retângulo_481" data-name="Retângulo 481" width="14.193" height="4.731" transform="translate(510.524 272.363)" opacity="0.3"/>
      <rect id="Retângulo_482" data-name="Retângulo 482" width="14.193" height="11.039" transform="translate(553.104 229.783)" opacity="0.3"/>
      <rect id="Retângulo_483" data-name="Retângulo 483" width="14.193" height="14.193" transform="translate(553.104 250.284)" opacity="0.3"/>
      <rect id="Retângulo_484" data-name="Retângulo 484" width="14.193" height="4.731" transform="translate(553.104 272.363)" opacity="0.3"/>
      <path id="Caminho_537" data-name="Caminho 537" d="M514.635,198.812V213.4a21.335,21.335,0,0,0-10.484,5.054l-1.962-16.288a30.985,30.985,0,0,1,12.447-3.352Z" transform="translate(-26.679 -46.304)" opacity="0.3"/>
      <path id="Caminho_538" data-name="Caminho 538" d="M497.908,227.6a46.491,46.491,0,0,0-3.074,13.971L480.35,237.7a60.03,60.03,0,0,1,5.061-17.928Z" transform="translate(-26.679 -46.304)" opacity="0.3"/>
      <path id="Caminho_539" data-name="Caminho 539" d="M614.967,198.812V213.4a21.335,21.335,0,0,1,10.484,5.054,24.8,24.8,0,0,1,6.242,9.152,46.493,46.493,0,0,1,3.074,13.971,79.878,79.878,0,0,1-.872,18.743h15.77a107.651,107.651,0,0,0-.413-22.62,60.032,60.032,0,0,0-5.061-17.928c-4.569-9.583-11.067-14.782-16.777-17.606A30.984,30.984,0,0,0,614.967,198.812Z" transform="translate(-26.679 -46.304)" fill="#3cb3de"/>
      <path id="Caminho_540" data-name="Caminho 540" d="M614.967,198.812V213.4a21.335,21.335,0,0,1,10.484,5.054l1.962-16.288A30.984,30.984,0,0,0,614.967,198.812Z" transform="translate(-26.679 -46.304)" opacity="0.3"/>
      <path id="Caminho_541" data-name="Caminho 541" d="M631.694,227.6a46.494,46.494,0,0,1,3.074,13.971l14.485-3.877a60.034,60.034,0,0,0-5.061-17.928Z" transform="translate(-26.679 -46.304)" opacity="0.3"/>
      <rect id="Retângulo_485" data-name="Retângulo 485" width="18.924" height="1.307" transform="translate(528.659 130.427)" opacity="0.1"/>
      <path id="Caminho_542" data-name="Caminho 542" d="M605.628,195.857v26.411a5.5,5.5,0,0,1-1.466-3.743V199.6a5.494,5.494,0,0,1,1.466-3.74Z" transform="translate(-26.679 -46.304)" opacity="0.1"/>
      <path id="Caminho_543" data-name="Caminho 543" d="M525.655,197.6V217.37a5.5,5.5,0,0,1-1.47,3.345V194.254a5.5,5.5,0,0,1,1.47,3.346Z" transform="translate(-26.679 -46.304)" opacity="0.1"/>
      <rect id="Retângulo_486" data-name="Retângulo 486" width="70.966" height="0.934" transform="translate(502.64 201.397)" opacity="0.1"/>
      <rect id="Retângulo_487" data-name="Retângulo 487" width="34.694" height="0.724" transform="translate(501.061 221.899)" opacity="0.1"/>
      <rect id="Retângulo_488" data-name="Retângulo 488" width="34.694" height="0.724" transform="translate(538.912 221.899)" opacity="0.1"/>
      <rect id="Retângulo_489" data-name="Retângulo 489" width="5.431" height="46.703" transform="translate(504.931 33.261)" fill="#3cb3de"/>
      <rect id="Retângulo_490" data-name="Retângulo 490" width="5.431" height="46.703" transform="translate(567.201 33.261)" fill="#3cb3de"/>
      <circle id="Elipse_46" data-name="Elipse 46" cx="6.155" cy="6.155" r="6.155" transform="translate(501.311 27.468)" opacity="0.1"/>
      <circle id="Elipse_47" data-name="Elipse 47" cx="6.155" cy="6.155" r="6.155" transform="translate(501.311 27.106)" fill="#3cb3de"/>
      <circle id="Elipse_48" data-name="Elipse 48" cx="6.155" cy="6.155" r="6.155" transform="translate(563.943 27.468)" opacity="0.1"/>
      <circle id="Elipse_49" data-name="Elipse 49" cx="6.155" cy="6.155" r="6.155" transform="translate(563.943 27.106)" fill="#3cb3de"/>
      <path id="Caminho_544" data-name="Caminho 544" d="M468.714,350.147c-2.421,2.424-2.973,5.754-3.834,8.841a43.566,43.566,0,0,1-16.3,22.918c-5.9,4.375-13.818,9.218-12.418,15.745.334,1.56,1.218,3.015,1.45,4.588,1.005,6.808-9.4,10.395-13.43,16.352-3,4.438-2.2,9.935-1.307,14.99,1.092,6.187,2.412,12.788,7.488,17.342,1.37,1.229,3,2.3,3.958,3.778,2.141,3.321.28,7.673,2.226,11.079,2.6,4.541,10.769,4.738,15.513,1.676s6.936-8.1,9.038-12.815c5.681-12.756,12.666-25.554,24.474-34.843,11.321-8.906,27.791-15.815,29.733-28.779.833-5.559-1.277-11.65,1.946-16.547,1.523-2.314,4.069-4.029,5.793-6.24,5.137-6.588,1.312-16.118-6.209-20.8C505.48,340.371,478.591,340.257,468.714,350.147Z" transform="translate(-26.679 -46.304)" fill="#dee3f3" opacity="0.5"/>
      <rect id="Retângulo_491" data-name="Retângulo 491" width="52.42" height="6.375" transform="translate(591.035 82.647) rotate(-17.351)" fill="#3cb3de"/>
      <path id="Caminho_545" data-name="Caminho 545" d="M690.027,350.162s-27.431-5.486-34.746-12.8-40.233-20.116-43.89-10.973S562.014,366.62,593.1,372.107s73.15,7.315,82.294,3.658S690.027,350.162,690.027,350.162Z" transform="translate(-26.679 -46.304)" fill="#a8a8a8"/>
      <path id="Caminho_546" data-name="Caminho 546" d="M593.1,368.709c31.089,5.486,73.15,7.315,82.294,3.658,6.964-2.785,11.8-16.168,13.716-22.4.579.123.915.191.915.191s-5.486,21.945-14.63,25.6-51.205,1.829-82.294-3.658c-8.974-1.584-11.541-5.3-10.574-10.009C583.3,365.168,586.423,367.531,593.1,368.709Z" transform="translate(-26.679 -46.304)" opacity="0.2"/>
      <path id="Caminho_547" data-name="Caminho 547" d="M750.943,111.006a8.057,8.057,0,0,0-2.27-3.146c-7.36-6.709-19.266-4.675-28.405-8.773-2.105-.944-4.265-2.254-6.551-1.895-3.192.5-6.16,4.135-8.944,2.523l.2.607c-.066-.033-.133-.065-.2-.1l2.047,6.235a22.648,22.648,0,0,0,3.143,6.85,17.935,17.935,0,0,0,4.337,29.831c.1.209.192.418.286.63.087.039.176.073.263.111a20.937,20.937,0,0,1,1.351,4.343c-2.369.328-6.5,2.947-10.561,6.815l-8.123-.278a26.564,26.564,0,0,1-14.594-4.962l-24.288-17.463a8.13,8.13,0,0,0-4.654,2.057c-3.016-3.143-5.576-6.426-5.358-8.349,0,0-11.3-21.141-15.4-10.571s7.7,21.645,7.7,21.645l7.491,9.705a40.831,40.831,0,0,0-.56,5.144c9.242,10.571,41.589,20.135,41.589,20.135l5.044.244c.01.093.019.171.028.248a17.166,17.166,0,0,0-.451,4.038c0,.2.007.4.01.6,0,.134-.012.269-.01.4.257,16.863,2.567,68.458,2.567,68.458.45-.2.914-.384,1.386-.556l-.36,4.583s-21.565,3.02-37.481,9.061-16.43,13.088-16.43,13.088v62.182c-4.548,2.333-11.721,5.4-15.4,3.759-4-1.781-6.192-.285-6.589,1.278h0a1.983,1.983,0,0,0-.018.939l0,.019a1.686,1.686,0,0,0,.153.4l.016.029a1.6,1.6,0,0,0,.271.356c1.54,1.51,34.914,14.6,42.616,12.584a5.322,5.322,0,0,0,.7-.235c.074-.031.14-.071.211-.1.143-.067.287-.133.419-.211.079-.047.15-.1.226-.155.115-.077.233-.152.34-.237.075-.06.142-.128.214-.192.1-.088.2-.174.292-.27.067-.07.128-.147.191-.221.087-.1.176-.2.257-.306.058-.077.11-.16.165-.241.078-.113.156-.225.228-.345.049-.082.093-.17.139-.255.069-.126.139-.252.2-.384.04-.085.076-.174.115-.261.061-.14.122-.28.177-.425.032-.085.061-.174.091-.261.054-.154.107-.309.154-.468.025-.083.046-.167.069-.251.047-.17.092-.341.133-.515.018-.077.034-.156.05-.234.04-.186.078-.373.111-.562.012-.07.023-.141.034-.211.033-.2.063-.407.089-.613.007-.059.014-.118.021-.178.026-.221.048-.442.067-.666,0-.047.007-.093.011-.14q.027-.358.044-.717c0-.032,0-.064,0-.1q.016-.385.021-.769v-.049a42.147,42.147,0,0,0-.991-8.929h0l1.863-52.976a288.871,288.871,0,0,0,30.215-1.113l1.1,25.275s0,16.611,5.648,24.162c4.833,6.462,10.418,35.04,11.929,43.148-2.075,3.956-6.044,8.849-12.956,8.7,0,0-13-1.124-12.271,2.453l0,.006a1.85,1.85,0,0,0,.082.274l.008.023a2.524,2.524,0,0,0,.141.3l.012.02c.052.092.112.188.18.285l.042.06c.076.105.159.213.253.325l.024.027c.087.1.183.2.285.311l.086.088c.116.117.239.236.374.358,6.675,6.04,45.7,7.047,45.7,7.047v-.136c0-.038,0-.087,0-.14v-.021c-.023-1.747-.255-10.92-2.592-17.824h.541s-5.648-50.84-10.269-56.88c0,0-1.228-26.807,1.543-43.608.17-.062.342-.122.51-.185,12.944-4.834,13.863-16.74,12.529-25.487,2.449.787,3.9,1.326,3.9,1.326s-.045-.38-.128-1.054l.128.047s-.247-1.6-.653-4.094c-.926-6.859-2.72-18.846-4.63-24.5-.308-1.244-.6-2.307-.878-3.113a53.209,53.209,0,0,1-2.261-10.456,123.9,123.9,0,0,1-.793-13.865,133.073,133.073,0,0,1,1.419-18.5,111.471,111.471,0,0,0,1.43-15.683,20.914,20.914,0,0,0-.309-4.419c-.686-3.137-3.711-5.177-6.858-6.475-.2-.084-.41-.152-.615-.23.076-1.189.177-2.536.307-3.957a3.382,3.382,0,0,0,2.617.53,6.2,6.2,0,0,0,3.187-2.487c4.551-5.589,9.223-11.415,10.971-18.358a39.671,39.671,0,0,0,.962-9.453q0-.261,0-.522a10.278,10.278,0,0,0-.414-3.529Z" transform="translate(-26.679 -46.304)" fill="url(#linear-gradient)"/>
      <path id="Caminho_548" data-name="Caminho 548" d="M709.51,138.251s6.894,10.342,5.417,15.266,16.251,1.97,16.251,1.97.492-19.206,3.94-23.638S709.51,138.251,709.51,138.251Z" transform="translate(-26.679 -46.304)" fill="#f7c4a7"/>
      <path id="Caminho_549" data-name="Caminho 549" d="M663.961,144.9s-14.281-11.819-13.789-16.251c0,0-10.834-20.683-14.774-10.342s7.387,21.176,7.387,21.176L656.574,157.7Z" transform="translate(-26.679 -46.304)" fill="#f7c4a7"/>
      <path id="Caminho_550" data-name="Caminho 550" d="M649.433,330.309s-13.3,8.372-18.713,5.909-7.387,1.477-5.909,2.955,33.487,14.281,40.874,12.311,3.63-18.1,3.63-18.1Z" transform="translate(-26.679 -46.304)" fill="#535461"/>
      <path id="Caminho_551" data-name="Caminho 551" d="M719.852,366.258s-3.2,13.543-14.281,13.3c0,0-16.743-1.477-10.342,4.432s43.828,6.894,43.828,6.894,0-20.191-6.894-24.623S719.852,366.258,719.852,366.258Z" transform="translate(-26.679 -46.304)" fill="#535461"/>
      <path id="Caminho_552" data-name="Caminho 552" d="M699.664,270.721l1.477,34.472s0,16.251,5.417,23.638,11.819,44.321,11.819,44.321H737.09s-5.417-49.738-9.849-55.647c0,0-1.97-43.828,4.924-53.678Z" transform="translate(-26.679 -46.304)" fill="#575988"/>
      <path id="Caminho_553" data-name="Caminho 553" d="M699.664,270.721l1.477,34.472s0,16.251,5.417,23.638,11.819,44.321,11.819,44.321H737.09s-5.417-49.738-9.849-55.647c0,0-1.97-43.828,4.924-53.678Z" transform="translate(-26.679 -46.304)" opacity="0.1"/>
      <path id="Caminho_554" data-name="Caminho 554" d="M738.568,239.7s11.327,27.085-9.357,34.964-58.11,6.894-58.11,6.894l-1.97,57.125s-23.145,2.955-23.638-4.432V271.706s.492-6.894,15.759-12.8,35.949-8.864,35.949-8.864l.985-12.8Z" transform="translate(-26.679 -46.304)" fill="#575988"/>
      <path id="Caminho_555" data-name="Caminho 555" d="M720.419,150.471a23.565,23.565,0,0,1,11.571,1.636c3.018,1.27,5.92,3.265,6.578,6.334.779,3.635-.085,11.786-1.075,18.681a128.67,128.67,0,0,0-.6,32.646c.508,4.524,1.208,8.469,2.168,10.23,2.955,5.417,5.909,31.025,5.909,31.025s-32.5-12.311-48.753-4.925c0,0-2.216-50.477-2.462-66.974-.191-12.774,16-27.331,21.422-27.824C718.35,151.012,717.266,150.8,720.419,150.471Z" transform="translate(-26.679 -46.304)" opacity="0.1"/>
      <path id="Caminho_556" data-name="Caminho 556" d="M720.419,149.487a23.565,23.565,0,0,1,11.571,1.636c3.018,1.27,5.92,3.265,6.578,6.334.779,3.635-.085,11.786-1.075,18.681a128.67,128.67,0,0,0-.6,32.646,52.945,52.945,0,0,0,2.168,10.23c2.216,6.648,5.909,31.025,5.909,31.025s-32.5-12.311-48.753-4.925c0,0-2.216-50.477-2.462-66.974-.191-12.774,16-27.331,21.422-27.824C718.35,150.028,717.266,149.814,720.419,149.487Z" transform="translate(-26.679 -46.304)" fill="#e14b5a"/>
      <path id="Caminho_557" data-name="Caminho 557" d="M729.21,176.662l-34.964-1.97s-2.225-17.142,2.822-16.966l34.6,1.207S739.063,167.8,729.21,176.662Z" transform="translate(-26.679 -46.304)" opacity="0.1"/>
      <path id="Caminho_558" data-name="Caminho 558" d="M729.21,175.678l-39.888-1.97s-31.025-9.357-39.889-19.7c0,0,.492-18.221,10.342-19.206l23.3,17.084a25.153,25.153,0,0,0,14,4.854l34.6,1.207S739.063,166.814,729.21,175.678Z" transform="translate(-26.679 -46.304)" fill="#e14b5a"/>
      <path id="Caminho_559" data-name="Caminho 559" d="M730.931,140.467c.585-4.67,2.7-6.219,4.186-8.126,3.447-4.432-25.608,6.4-25.608,6.4a52.241,52.241,0,0,1,3.928,7.246,17.655,17.655,0,0,0,7.4,1.618C725.122,147.607,727.871,143,730.931,140.467Z" transform="translate(-26.679 -46.304)" opacity="0.1"/>
      <circle id="Elipse_50" data-name="Elipse 50" cx="17.728" cy="17.728" r="17.728" transform="translate(676.432 65.354)" fill="#f7c4a7"/>
      <path id="Caminho_560" data-name="Caminho 560" d="M709.644,116.96c-1.888-2.062-2.8-4.813-3.652-7.474l-1.963-6.1c2.67,1.577,5.516-1.978,8.578-2.468,2.193-.351,4.264.93,6.283,1.854,8.766,4.009,20.185,2.02,27.244,8.583a7.879,7.879,0,0,1,2.177,3.078,10.3,10.3,0,0,1,.4,3.471,39.551,39.551,0,0,1-.923,9.248c-1.676,6.792-6.158,12.492-10.523,17.96a5.96,5.96,0,0,1-3.057,2.433c-2.534.566-4.495-2.173-5.475-4.577a48.7,48.7,0,0,1-2.857-9.883,12.948,12.948,0,0,0-1.17-4.177c-1.526-2.705-5.287-5.265-7.574-7.36C714.879,119.487,711.741,119.254,709.644,116.96Z" transform="translate(-26.679 -46.304)" opacity="0.1"/>
      <path id="Caminho_561" data-name="Caminho 561" d="M709.644,116.468c-1.888-2.062-2.8-4.813-3.652-7.474l-1.963-6.1c2.67,1.577,5.516-1.978,8.578-2.468,2.193-.351,4.264.93,6.283,1.854,8.766,4.009,20.185,2.02,27.244,8.583a7.879,7.879,0,0,1,2.177,3.078,10.3,10.3,0,0,1,.4,3.471,39.551,39.551,0,0,1-.923,9.248c-1.676,6.792-6.158,12.492-10.523,17.96a5.96,5.96,0,0,1-3.057,2.433c-2.534.566-4.495-2.173-5.475-4.577a48.7,48.7,0,0,1-2.857-9.883,12.948,12.948,0,0,0-1.17-4.177c-1.526-2.705-5.287-5.265-7.574-7.36C714.879,118.995,711.741,118.762,709.644,116.468Z" transform="translate(-26.679 -46.304)" fill="#632652"/>
      <ellipse id="Elipse_51" data-name="Elipse 51" cx="1.477" cy="3.201" rx="1.477" ry="3.201" transform="translate(697.361 81.851)" fill="#f7c4a7"/>
      <path id="Caminho_562" data-name="Caminho 562" d="M734.381,216.8s-.985,2.955-5.909,2.462-19.206-1.477-19.206,0" transform="translate(-26.679 -46.304)" opacity="0.1"/>
      <path id="Caminho_563" data-name="Caminho 563" d="M695.232,383.493a4.171,4.171,0,0,1-1.433-2.055c-.129.64.266,1.47,1.433,2.547,6.4,5.909,43.828,6.894,43.828,6.894s0-.174-.006-.493C738.815,390.382,701.613,389.384,695.232,383.493Z" transform="translate(-26.679 -46.304)" fill="#fff" opacity="0.5"/>
      <path id="Caminho_564" data-name="Caminho 564" d="M665.684,350.5c-7.387,1.97-39.4-10.834-40.874-12.311a1.6,1.6,0,0,1-.41-.72,1.77,1.77,0,0,0,.41,1.7c1.477,1.477,33.487,14.281,40.874,12.311,3.8-1.014,4.649-5.779,4.579-10.165C670.191,345.409,669.2,349.561,665.684,350.5Z" transform="translate(-26.679 -46.304)" fill="#fff" opacity="0.5"/>
      <path id="Caminho_565" data-name="Caminho 565" d="M384.765,388.241a211.38,211.38,0,0,1-3.171-29.078h0a38.954,38.954,0,0,0-27.413-35.574c-2.8-.861-5.883-1.665-9.284-2.388-29.843-6.338-38.909-.8-39.939-.077a38.266,38.266,0,0,1-2.259-4.934c-.051-.173-.1-.348-.146-.522a38.2,38.2,0,0,0,10.208-23.018c4.978-5.048,7.886-11.137,7.886-17.694a24.308,24.308,0,0,0-5.922-15.514v-8.9a38.752,38.752,0,0,0-38.752-38.752H272.83a38.752,38.752,0,0,0-38.752,38.752v9.605a24.056,24.056,0,0,0-5.358,14.807c0,6.419,2.79,12.389,7.577,17.373a38.212,38.212,0,0,0,10.635,23.763c.21,1.455.425,3.022.637,4.674l-53.393,11.292s-20.585.846-33.838,28.2c-11.22,23.156-33.554,82.686-40.143,100.409h0c-1.194,3.212-1.872,5.053-1.872,5.053s.219-.221.638-.6c-.415,1.12-.638,1.726-.638,1.726s.324-.328.94-.866c-.935,7.417-1.069,20.147,8.648,21.733,8.144,1.33,29.123,1.876,44.976,2.1v.015h1.1c10.505.141,18.5.141,18.5.141v-.141H362.944V488.08a11.749,11.749,0,0,0-.939-4.617q.123-.142.238-.285a9.356,9.356,0,0,1,1.769,4.1,4.094,4.094,0,0,1-.08.433l.1-.261a4.389,4.389,0,0,1-.1,1.389s21.87-56.35,21.636-90a57,57,0,0,0-.8-10.6ZM248.444,328.374a39.1,39.1,0,0,1-.541-4.86v-.045C248.093,325.052,248.275,326.692,248.444,328.374ZM182.193,449.41v13.43l-8.419,1.8Z" transform="translate(-26.679 -46.304)" fill="url(#linear-gradient-2)"/>
      <path id="Caminho_566" data-name="Caminho 566" d="M246.848,170.907h0A38.752,38.752,0,0,1,285.6,209.659V226.19h-77.5V209.66a38.752,38.752,0,0,1,38.753-38.753Z" fill="#e14b5a"/>
      <ellipse id="Elipse_52" data-name="Elipse 52" cx="44.172" cy="30.351" rx="44.172" ry="30.351" transform="translate(202.946 201.259)" fill="#e14b5a"/>
      <path id="Caminho_567" data-name="Caminho 567" d="M245.478,307.317s9.214,48.237,0,61.245,28.184,18.157,28.184,18.157l38.752-14.092,5.42-34.687s-23.577-13.279-18.7-40.107Z" transform="translate(-26.679 -46.304)" fill="#f7c4a7"/>
      <path id="Caminho_568" data-name="Caminho 568" d="M359.838,469.915s2.439,10.569-10.84,12.466a75.093,75.093,0,0,1-23.629-.282l-2.929-26.547h30.893Z" transform="translate(-26.679 -46.304)" fill="#f7c4a7"/>
      <path id="Caminho_569" data-name="Caminho 569" d="M125.329,456.387s-5.864,23.826,7.415,25.994,62.058,2.168,62.058,2.168V456.365l-22.082,4.716-20.735-19.892Z" transform="translate(-26.679 -46.304)" fill="#f7c4a7"/>
      <path id="Caminho_570" data-name="Caminho 570" d="M248.324,322.9l-51.9,10.975s-19.783.813-32.519,27.1S123.53,462.326,123.53,462.326s23.577-23.848,51.218,1.626l18.428-33.332-4.065,52.844H331.926V458.533s29.809,15.989,27.642,24.932c0,0,25.508-65.725,20.022-95.595a203.143,203.143,0,0,1-3.048-27.945h0A37.436,37.436,0,0,0,350.2,325.736c-2.688-.827-5.653-1.6-8.922-2.295-30.622-6.5-38.481,0-38.481,0s-5.932,19.3-5.826,28.048c.135,11.246-15.989,18.7-15.989,18.7s-23.848-5.691-24.932-10.3S246.427,328.319,248.324,322.9Z" transform="translate(-26.679 -46.304)" opacity="0.1"/>
      <path id="Caminho_571" data-name="Caminho 571" d="M248.324,321.816l-51.9,10.975s-19.783.813-32.52,27.1S123.53,461.243,123.53,461.243s23.577-23.848,51.218,1.626l18.428-33.332-4.065,52.844H331.926V457.449s29.809,15.989,27.642,24.932c0,0,25.508-65.725,20.022-95.595a203.144,203.144,0,0,1-3.048-27.946h0A37.436,37.436,0,0,0,350.2,324.652c-2.688-.827-5.653-1.6-8.922-2.294-30.622-6.5-38.481,0-38.481,0s-5.932,19.3-5.826,28.048c.135,11.246-15.989,18.7-15.989,18.7s-23.848-5.691-24.932-10.3S246.427,327.236,248.324,321.816Z" transform="translate(-26.679 -46.304)" fill="#575988"/>
      <path id="Caminho_572" data-name="Caminho 572" d="M301.363,319.513a36.681,36.681,0,0,1-1.414-19.241l-53.657,9.485s.774,4.055,1.65,10.13a36.849,36.849,0,0,0,53.421-.374Z" transform="translate(-26.679 -46.304)" opacity="0.1"/>
      <path id="Caminho_573" data-name="Caminho 573" d="M310.517,291.87a36.854,36.854,0,1,1-73.7.894q-.008-.447-.008-.894a36.866,36.866,0,0,1,20.666-33.121q1.65-.8,3.4-1.455a37.119,37.119,0,0,1,18.983-1.761.02.02,0,0,0,.014,0,36.827,36.827,0,0,1,30.566,33.893Q310.517,290.64,310.517,291.87Z" transform="translate(-26.679 -46.304)" fill="#f7c4a7"/>
      <g id="Grupo_324" data-name="Grupo 324" opacity="0.1">
        <path id="Caminho_574" data-name="Caminho 574" d="M260.822,258.159a.549.549,0,0,1,.051-.033A36.842,36.842,0,0,0,236.806,292.7c0,.3,0,.6.011.894a8.187,8.187,0,0,0,3.306-.794c8.986-4.192,14.376-17.024,16.493-25.972C257.375,263.628,258.1,260.018,260.822,258.159Z" transform="translate(-26.679 -46.304)"/>
        <path id="Caminho_575" data-name="Caminho 575" d="M289.032,259.194a36.551,36.551,0,0,0-9.162-2.826,11.823,11.823,0,0,1,6.58,4.133,16.848,16.848,0,0,1,2.014,3.591,36.954,36.954,0,0,0-31,.642c2.314,5.07,9.488,7.837,14.276,9.688q7.866,3.037,15.916,5.553-2.37-1.927-4.74-3.848l10.7,1.7a18.539,18.539,0,0,0-.747-6.308c2.037,1.652,4.769,2.206,6.993,3.609,4.171,2.629,5.9,7.7,8.179,12.076a7.8,7.8,0,0,0,2.39,3.057,36.871,36.871,0,0,0-21.4-31.067Z" transform="translate(-26.679 -46.304)"/>
      </g>
      <path id="Caminho_576" data-name="Caminho 576" d="M260.822,257.327a.554.554,0,0,1,.052-.033,36.842,36.842,0,0,0-24.067,34.576c0,.3,0,.6.011.894a8.187,8.187,0,0,0,3.306-.794c8.986-4.192,14.376-17.024,16.493-25.972C257.375,262.8,258.1,259.185,260.822,257.327Z" transform="translate(-26.679 -46.304)" fill="#632652"/>
      <path id="Caminho_577" data-name="Caminho 577" d="M289.032,258.362a36.55,36.55,0,0,0-9.162-2.826,11.823,11.823,0,0,1,6.58,4.133,16.85,16.85,0,0,1,2.014,3.591,36.954,36.954,0,0,0-31,.642c2.314,5.07,9.488,7.837,14.276,9.688q7.866,3.036,15.916,5.553-2.37-1.927-4.74-3.848l10.7,1.7a18.537,18.537,0,0,0-.747-6.308c2.037,1.652,4.769,2.206,6.993,3.609,4.171,2.629,5.9,7.7,8.179,12.076a7.8,7.8,0,0,0,2.39,3.057,36.871,36.871,0,0,0-21.4-31.067Z" transform="translate(-26.679 -46.304)" fill="#632652"/>
      <path id="Caminho_578" data-name="Caminho 578" d="M232.606,285.792s37.939-47.153,81.841,0l-3.794-10.569s-20.6-30.081-35.229-23.577-29,11.111-29,11.111Z" transform="translate(-26.679 -46.304)" opacity="0.1"/>
      <path id="Caminho_579" data-name="Caminho 579" d="M232.606,284.96s37.939-47.153,81.841,0l-3.794-10.569s-20.6-30.081-35.229-23.577-29,11.111-29,11.111Z" transform="translate(-26.679 -46.304)" fill="#e14b5a"/>
      <path id="Caminho_580" data-name="Caminho 580" d="M201.442,386.583s-8.13,21.68,3.252,41.191-10.027,27.642-10.027,27.642" transform="translate(-26.679 -46.304)" opacity="0.1"/>
      <path id="Caminho_581" data-name="Caminho 581" d="M333.145,367.072s14.092,17.886,4.878,33.874-8.672,54.47-8.672,54.47" transform="translate(-26.679 -46.304)" opacity="0.1"/>
      <path id="Caminho_582" data-name="Caminho 582" d="M162.3,425.1H318.932a13.008,13.008,0,0,1,13.008,13.008H149.289A13.008,13.008,0,0,1,162.3,425.1Z" fill="#535461"/>
      <path id="Caminho_583" data-name="Caminho 583" d="M185.859,335.672H295.37A27.627,27.627,0,0,1,323,363.3v64.782H158.232V363.3A27.627,27.627,0,0,1,185.859,335.672Z" fill="#535461"/>
      <circle id="Elipse_53" data-name="Elipse 53" cx="9.756" cy="9.756" r="9.756" transform="translate(230.723 376.186)" fill="#fff"/>
      <path id="Caminho_584" data-name="Caminho 584" d="M234.774,263.684s37.289-37.268,77.5-.68" transform="translate(-26.679 -46.304)" fill="none" stroke="#000" stroke-miterlimit="10" stroke-width="0.708" opacity="0.1"/>
      <rect id="Retângulo_492" data-name="Retângulo 492" width="3.745" height="21.222" transform="translate(291.277 215.006)" fill="#6a5c99"/>
      <path id="Caminho_585" data-name="Caminho 585" d="M286.284,228.738h0a12.9,12.9,0,0,1,12.9,12.9v.832a12.9,12.9,0,0,1-12.9,12.9h0Z" fill="#ffd037"/>
      <rect id="Retângulo_493" data-name="Retângulo 493" width="5.826" height="29.128" rx="2.913" transform="translate(283.788 227.489)" fill="#6a5c99"/>
      <rect id="Retângulo_494" data-name="Retângulo 494" width="3.745" height="21.222" transform="translate(202.035 236.644) rotate(180)" fill="#6a5c99"/>
      <path id="Caminho_586" data-name="Caminho 586" d="M220.807,275.458h0a12.9,12.9,0,0,1,12.9,12.9v.832a12.9,12.9,0,0,1-12.9,12.9h0Z" transform="translate(427.836 531.243) rotate(180)" fill="#ffd037"/>
      <rect id="Retângulo_495" data-name="Retângulo 495" width="5.826" height="29.128" rx="2.913" transform="translate(209.525 257.034) rotate(180)" fill="#6a5c99"/>
      <path id="Caminho_587" data-name="Caminho 587" d="M317.512,238.626c-5.071-10.544-16.115-23.291-39.922-24.309l0-.029-.286.014h-.019v0l-8.434.4v.041c-23.65,1.089-34.643,13.786-39.7,24.3a54.657,54.657,0,0,0-5.228,22.755l2.912-.071,2.912-.067a49.561,49.561,0,0,1,4.742-20.274c6.421-13.186,18.233-20.2,35.11-20.847v-.005l7.46-.413v0c16.876.647,28.689,7.661,35.11,20.847a49.56,49.56,0,0,1,4.742,20.274l2.912.067,2.912.071A54.656,54.656,0,0,0,317.512,238.626Z" transform="translate(-26.679 -46.304)" fill="#ffd037"/>
      <rect id="Retângulo_496" data-name="Retângulo 496" width="397.246" height="106.656" transform="translate(26.646 438.28)" fill="#d6d6e3"/>
      <rect id="Retângulo_497" data-name="Retângulo 497" width="397.246" height="13.845" transform="translate(26.646 445.458)" opacity="0.1"/>
      <rect id="Retângulo_498" data-name="Retângulo 498" width="450.535" height="13.845" transform="translate(0 436.742)" fill="#d6d6e3"/>
      <path id="Caminho_588" data-name="Caminho 588" d="M335.183,448.616s17,31.169,59.5,22.668,21.96,78.631,21.96,78.631-6.954,41.565-2.06,41.326" transform="translate(-26.679 -46.304)" fill="none" stroke="#535461" stroke-miterlimit="10" stroke-width="2.125"/>
    </g>
  </g>
</svg>
