<svg id="imagem" xmlns="http://www.w3.org/2000/svg" width="812" height="500" viewBox="0 0 812 500">
  <path id="Caminho_452" data-name="Caminho 452" d="M569.759,855.2l-26.492-74.178s29.141,14.571,30.466,33.115c0,0-6.623-92.723-19.869-112.592,0,0,21.194,2.649,45.037,105.969,0,0,3.974-119.215-31.791-153.655,0,0,49.011,39.738,52.985,125.838v75.5Z" transform="translate(-345.853 -356)" fill="#eaeaea"/>
  <path id="Caminho_453" data-name="Caminho 453" d="M1066.59,855.2l-6.37-17.836s7.007,3.5,7.325,7.962c0,0-1.592-22.294-4.777-27.072,0,0,5.1.637,10.829,25.479,0,0,.955-28.664-7.644-36.945,0,0,11.784,9.555,12.74,30.257V855.2Z" transform="translate(-449.961 -356)" fill="#eaeaea"/>
  <circle id="Elipse_29" data-name="Elipse 29" cx="116.457" cy="116.457" r="116.457" transform="translate(398.861 158.441)" fill="#eaeaea"/>
  <rect id="Retângulo_174" data-name="Retângulo 174" width="274.677" height="152.598" transform="translate(0 8.835)" fill="#eaeaea"/>
  <rect id="Retângulo_175" data-name="Retângulo 175" width="274.677" height="152.598" transform="translate(268.661 8.835)" fill="#eaeaea"/>
  <rect id="Retângulo_176" data-name="Retângulo 176" width="274.677" height="152.598" transform="translate(537.323 8.835)" fill="#eaeaea"/>
  <path id="Caminho_454" data-name="Caminho 454" d="M996.086,855.616c-.184-.3-4.53-7.558-6.037-22.626-1.382-13.825-.493-37.127,11.591-69.632,22.894-61.578-5.276-111.263-5.564-111.758l1.39-.806c.073.125,7.342,12.793,11.636,32.964a143.813,143.813,0,0,1-5.956,80.16c-22.855,61.473-5.864,90.574-5.69,90.861Z" transform="translate(-435.899 -356)" fill="#3f3d56"/>
  <circle id="Elipse_30" data-name="Elipse 30" cx="10.441" cy="10.441" r="10.441" transform="translate(543.735 310.515)" fill="#3cb3de"/>
  <circle id="Elipse_31" data-name="Elipse 31" cx="10.441" cy="10.441" r="10.441" transform="translate(569.809 341.762)" fill="#3f3d56"/>
  <circle id="Elipse_32" data-name="Elipse 32" cx="10.441" cy="10.441" r="10.441" transform="translate(552.002 362.593)" fill="#3cb3de"/>
  <circle id="Elipse_33" data-name="Elipse 33" cx="10.441" cy="10.441" r="10.441" transform="translate(573.624 380.169)" fill="#3cb3de"/>
  <circle id="Elipse_34" data-name="Elipse 34" cx="10.441" cy="10.441" r="10.441" transform="translate(545.642 396.222)" fill="#3f3d56"/>
  <path id="Caminho_455" data-name="Caminho 455" d="M1002.39,856s-10.441-25.7,20.882-44.976Z" transform="translate(-438.208 -356)" fill="#3f3d56"/>
  <path id="Caminho_456" data-name="Caminho 456" d="M989.553,855.534s-4.752-27.331-41.53-27.1Z" transform="translate(-429.88 -356)" fill="#3f3d56"/>
  <rect id="Retângulo_177" data-name="Retângulo 177" width="273.874" height="13.653" transform="translate(0.402)" fill="#3f3d56"/>
  <rect id="Retângulo_178" data-name="Retângulo 178" width="274.677" height="13.653" transform="translate(268.951)" fill="#3f3d56"/>
  <rect id="Retângulo_179" data-name="Retângulo 179" width="273.874" height="13.653" transform="translate(537.724)" fill="#3f3d56"/>
  <rect id="Retângulo_180" data-name="Retângulo 180" width="49.795" height="35.339" transform="translate(20.882 34.937)" fill="#fff"/>
  <rect id="Retângulo_181" data-name="Retângulo 181" width="137.339" height="4.016" transform="translate(116.457 34.937)" fill="#fff"/>
  <rect id="Retângulo_182" data-name="Retângulo 182" width="137.339" height="4.016" transform="translate(116.457 51)" fill="#fff"/>
  <rect id="Retângulo_183" data-name="Retângulo 183" width="137.339" height="4.016" transform="translate(116.457 67.063)" fill="#fff"/>
  <rect id="Retângulo_184" data-name="Retângulo 184" width="49.795" height="35.339" transform="translate(309.172 34.937)" fill="#fff"/>
  <rect id="Retângulo_185" data-name="Retângulo 185" width="137.339" height="4.016" transform="translate(373.857 34.937)" fill="#fff"/>
  <rect id="Retângulo_186" data-name="Retângulo 186" width="137.339" height="4.016" transform="translate(373.857 51)" fill="#fff"/>
  <rect id="Retângulo_187" data-name="Retângulo 187" width="137.339" height="4.016" transform="translate(373.857 67.063)" fill="#fff"/>
  <rect id="Retângulo_188" data-name="Retângulo 188" width="49.795" height="35.339" transform="translate(601.94 34.937)" fill="#fff"/>
  <rect id="Retângulo_189" data-name="Retângulo 189" width="137.339" height="4.016" transform="translate(653.78 34.937)" fill="#fff"/>
  <rect id="Retângulo_190" data-name="Retângulo 190" width="137.339" height="4.016" transform="translate(653.78 51)" fill="#fff"/>
  <rect id="Retângulo_191" data-name="Retângulo 191" width="137.339" height="4.016" transform="translate(653.78 67.063)" fill="#fff"/>
  <circle id="Elipse_35" data-name="Elipse 35" cx="16.063" cy="16.063" r="16.063" transform="translate(29.716 36.945)" fill="#3cb3de"/>
  <circle id="Elipse_36" data-name="Elipse 36" cx="16.063" cy="16.063" r="16.063" transform="translate(611.852 36.945)" fill="#3cb3de"/>
  <rect id="Retângulo_192" data-name="Retângulo 192" width="1.606" height="4.819" transform="translate(126.714 131.655)" fill="#3f3d56"/>
  <path id="Caminho_457" data-name="Caminho 457" d="M418.32,603.008h-1.606V593.37h1.606Zm0-19.276h-1.606v-9.638h1.606Zm0-19.276h-1.606v-9.638h1.606Zm0-19.276h-1.606v-9.638h1.606Zm0-19.276h-1.606v-9.638h1.606Zm0-19.276h-1.606v-9.638h1.606Zm0-19.276h-1.606v-9.638h1.606Zm0-19.276h-1.606v-9.638h1.606Zm0-19.276h-1.606v-9.638h1.606Zm0-19.276h-1.606V419.89h1.606Z" transform="translate(-290 -289.933)" fill="#3f3d56"/>
  <path id="Caminho_458" data-name="Caminho 458" d="M132.336,374.268h-5.622v-5.622h1.606v4.015h4.016Z" transform="translate(0 -68.09)" fill="#3f3d56"/>
  <path id="Caminho_459" data-name="Caminho 459" d="M1022.9,618.268h-7.878v-1.606h7.878Zm-15.757,0h-7.878v-1.606h7.878Zm-15.757,0h-7.879v-1.606h7.879Zm-15.757,0h-7.876v-1.606h7.878Zm-15.757,0H952v-1.606h7.879Zm-15.757,0h-7.878v-1.606h7.878Zm-15.757,0h-7.879v-1.606h7.879Zm-15.757,0h-7.878v-1.606h7.878Zm-15.757,0H888.97v-1.606h7.879Zm-15.757,0h-7.878v-1.606h7.878Zm-15.757,0h-7.879v-1.606h7.879Zm-15.757,0H841.7v-1.606h7.878Zm-15.757,0h-7.879v-1.606h7.879Zm-15.757,0h-7.878v-1.606h7.878Zm-15.757,0h-7.879v-1.606h7.879Zm-15.757,0h-7.878v-1.606h7.878Zm-15.757,0h-7.879v-1.606h7.879Zm-15.757,0h-7.878v-1.606h7.878Zm-15.757,0H731.4v-1.606h7.879Zm-15.757,0h-7.879v-1.606h7.879Zm-15.757,0h-7.879v-1.606h7.879Zm-15.757,0H684.13v-1.606h7.879Zm-15.757,0h-7.879v-1.606h7.879Zm-15.757,0h-7.879v-1.606h7.879Zm-15.757,0h-7.879v-1.606h7.879Zm-15.757,0H621.1v-1.606h7.879Zm-15.757,0h-7.879v-1.606h7.879Zm-15.757,0h-7.879v-1.606h7.879Zm-15.757,0h-7.879v-1.606h7.879Zm-15.757,0h-7.879v-1.606h7.879Zm-15.757,0h-7.879v-1.606H550.2Zm-15.757,0h-7.878v-1.606h7.878Zm-15.757,0H510.8v-1.606h7.878Zm-15.757,0h-7.878v-1.606h7.878Zm-15.757,0H479.29v-1.606h7.878Zm-15.757,0h-7.878v-1.606h7.878Zm-15.757,0h-7.878v-1.606h7.878Zm-15.757,0h-7.878v-1.606H439.9Z" transform="translate(-325.156 -312.379)" fill="#3f3d56"/>
  <path id="Caminho_460" data-name="Caminho 460" d="M883.465,374.268h-5.622v-1.607h4.015v-4.015h1.607Z" transform="translate(-208 -68.09)" fill="#3f3d56"/>
  <path id="Caminho_461" data-name="Caminho 461" d="M1173.46,603.008h-1.606V593.37h1.606Zm0-19.276h-1.606v-9.638h1.606Zm0-19.276h-1.606v-9.638h1.606Zm0-19.276h-1.606v-9.638h1.606Zm0-19.276h-1.606v-9.638h1.606Zm0-19.276h-1.606v-9.638h1.606Zm0-19.276h-1.606v-9.638h1.606Zm0-19.276h-1.606v-9.638h1.606Zm0-19.276h-1.606v-9.638h1.606Zm0-19.276h-1.606V419.89h1.606Z" transform="translate(-498 -289.933)" fill="#3f3d56"/>
  <rect id="Retângulo_193" data-name="Retângulo 193" width="1.606" height="4.819" transform="translate(673.858 131.655)" fill="#3f3d56"/>
  <rect id="Retângulo_194" data-name="Retângulo 194" width="274.677" height="285.921" transform="translate(268.661 213.276)" fill="#3f3d56"/>
  <rect id="Retângulo_195" data-name="Retângulo 195" width="49.795" height="35.339" transform="translate(309.172 292.193)" fill="#fff"/>
  <rect id="Retângulo_196" data-name="Retângulo 196" width="137.339" height="4.016" transform="translate(373.857 295.821)" fill="#fff"/>
  <rect id="Retângulo_197" data-name="Retângulo 197" width="137.339" height="4.016" transform="translate(373.857 308.925)" fill="#fff"/>
  <rect id="Retângulo_198" data-name="Retângulo 198" width="137.339" height="4.016" transform="translate(373.857 322.029)" fill="#fff"/>
  <rect id="Retângulo_199" data-name="Retângulo 199" width="49.795" height="35.339" transform="translate(309.172 383.428)" fill="#fff"/>
  <rect id="Retângulo_200" data-name="Retângulo 200" width="137.339" height="4.016" transform="translate(373.857 384.971)" fill="#fff"/>
  <rect id="Retângulo_201" data-name="Retângulo 201" width="137.339" height="4.016" transform="translate(373.857 393.815)" fill="#fff"/>
  <rect id="Retângulo_202" data-name="Retângulo 202" width="137.339" height="4.016" transform="translate(373.857 410.047)" fill="#fff"/>
  <path id="Caminho_462" data-name="Caminho 462" d="M418.652,389.229,401.607,366.5l4.038-3.028,13.885,18.514,35.393-28.665,3.2,3.906Z" transform="translate(-86.7 -68.691)" fill="#3cb3de"/>
  <path id="Caminho_463" data-name="Caminho 463" d="M418.652,515.324,401.607,492.6l4.038-3.028,13.885,18.513,35.393-28.665,3.2,3.907Z" transform="translate(-86.7 -93.205)" fill="#3cb3de"/>
  <rect id="Retângulo_203" data-name="Retângulo 203" width="783.89" height="1.606" transform="translate(7.228 498.394)" fill="#3f3d56"/>
  <path id="Caminho_464" data-name="Caminho 464" d="M834.574,414.268s26.5-11.549,38.953.651S840.2,423.1,834.574,414.268Z" transform="translate(-405.712 -274.925)" fill="#3f3d56"/>
  <path id="Caminho_465" data-name="Caminho 465" d="M880.339,359.5c-8.907-15.05-26.528-15.751-26.528-15.751s-17.171-2.2-28.186,20.725c-10.267,21.364-24.437,41.992-2.281,46.993l4-12.456,2.478,13.383a86.671,86.671,0,0,0,9.48.162c23.727-.766,46.323.224,45.6-8.29C883.932,392.945,888.909,373.978,880.339,359.5Z" transform="translate(-404.671 -264.559)" fill="#2f2e41"/>
  <path id="Caminho_466" data-name="Caminho 466" d="M892.8,632.323S881.558,653.2,874.33,653.2s-6.425,13.654-4.819,16.866,5.622,10.441-.8,20.882c-2.244,3.647-1.843,7.784-.37,11.624,4.126,10.758,20.178,7.5,19.666-4.012q-.009-.19-.021-.383c-.8-12.85,5.622-32.929,12.047-37.748s12.047-17.669,12.047-17.669Z" transform="translate(-413.114 -325.266)" fill="#ffb8b8"/>
  <path id="Caminho_467" data-name="Caminho 467" d="M815.7,627.5s11.244,20.882,18.472,20.882,6.425,13.654,4.819,16.866-5.622,10.441.8,20.882c2.244,3.647,1.843,7.784.37,11.624-4.126,10.758-20.178,7.5-19.666-4.012q.009-.19.021-.383c.8-12.85-5.622-32.929-12.047-37.748s-12.047-17.669-12.047-17.669Z" transform="translate(-398.032 -324.258)" fill="#ffb8b8"/>
  <path id="Caminho_468" data-name="Caminho 468" d="M824.534,524.7l-4.819,10.441s-70.677,23.291-64.252,50.6,37.748,69.874,42.567,68.268,30.52-6.425,31.323-20.079-18.472-37.748-18.472-37.748l26.5-24.094,38.568-.8,32.913,24.9s-34.535,30.52-19.276,42.567,37.748,20.079,40.961,15.26,39.354-76.3,33.732-82.724-62.646-30.52-62.646-30.52l-15.26-21.685-59.433-3.213Z" transform="translate(-409.394 -308.451)" fill="#2f2e41"/>
  <path id="Caminho_469" data-name="Caminho 469" d="M838.991,392.181s4.016,26.5-4.016,29.716,16.063,16.866,16.063,16.866h13.654l8.835-18.472s-8.031-14.457-3.213-28.11S838.991,392.181,838.991,392.181Z" transform="translate(-405.343 -272.456)" fill="#ffb8b8"/>
  <path id="Caminho_470" data-name="Caminho 470" d="M838.991,392.181s4.016,26.5-4.016,29.716,16.063,16.866,16.063,16.866h13.654l8.835-18.472s-8.031-14.457-3.213-28.11S838.991,392.181,838.991,392.181Z" transform="translate(-405.343 -272.456)" opacity="0.1"/>
  <path id="Caminho_471" data-name="Caminho 471" d="M833.369,414.669s8.835,9.638,10.441,11.244,8.835,10.441,24.094-2.409,16.866,2.409,16.866,2.409v96.378s-12.85-5.622-23.291,0-32.126-1.606-32.126-1.606l-4.016-99.591Z" transform="translate(-405.921 -282.06)" fill="#fff"/>
  <path id="Caminho_472" data-name="Caminho 472" d="M839.269,414.669s-7.506-3.213-13.931,0-28.913,19.276-27.307,26.5,22.488,57.827,8.031,81.921-16.866,30.52-16.866,30.52l35.339-18.472s27.307-16.866,24.9-27.307S839.269,414.669,839.269,414.669Z" transform="translate(-398.203 -284.191)" fill="#3cb3de"/>
  <path id="Caminho_473" data-name="Caminho 473" d="M871.127,414.669s16.857,1.606,17.66,3.213,25.3,8.433,23.693,15.661-23.693,71.882-14.055,83.929,25.7,28.913,20.079,30.52-15.26-2.409-24.9,0-32.126-17.669-29.716-39.354S863.908,420.291,871.127,414.669Z" transform="translate(-413.783 -283.966)" fill="#3cb3de"/>
  <path id="Caminho_474" data-name="Caminho 474" d="M830.96,568.071V576.1s-4.016,18.472,8.835,17.669,4.819-22.488,4.819-22.488l-.8-7.228Z" transform="translate(-402.029 -305.564)" fill="#ffb8b8"/>
  <path id="Caminho_475" data-name="Caminho 475" d="M867.1,568.874s-8.835,18.472,0,20.079,15.26-10.441,15.26-13.654S867.1,568.874,867.1,568.874Z" transform="translate(-409.123 -305.486)" fill="#ffb8b8"/>
  <ellipse id="Elipse_37" data-name="Elipse 37" cx="1.606" cy="3.213" rx="1.606" ry="3.213" transform="translate(467.032 109.32)" fill="#ffb8b8"/>
  <ellipse id="Elipse_38" data-name="Elipse 38" cx="1.606" cy="3.213" rx="1.606" ry="3.213" transform="translate(429.339 109.32)" fill="#ffb8b8"/>
  <path id="Caminho_476" data-name="Caminho 476" d="M892.8,425.11s20.079,0,19.276,8.031-27.307,146.174-27.307,146.174-11.244-10.441-20.882-8.031Z" transform="translate(-412.834 -288.309)" fill="#3cb3de"/>
  <path id="Caminho_477" data-name="Caminho 477" d="M814.9,427.52s-20.079,4.016-20.079,16.063,28.913,127.7,32.929,127.7,19.276-2.409,19.276-6.425S814.9,427.52,814.9,427.52Z" transform="translate(-398.496 -287.897)" fill="#3cb3de"/>
  <path id="Caminho_478" data-name="Caminho 478" d="M819.314,451.213l18.071,70.67S828.952,460.047,819.314,451.213Z" transform="translate(-399.885 -286.872)" opacity="0.2"/>
  <path id="Caminho_479" data-name="Caminho 479" d="M889.6,441.283l-18.276,92.4S877.168,446.612,889.6,441.283Z" transform="translate(-410.708 -286.524)" opacity="0.2"/>
  <circle id="Elipse_39" data-name="Elipse 39" cx="23.291" cy="23.291" r="23.291" transform="translate(425.999 91.778)" fill="#ffb8b8"/>
  <path id="Caminho_480" data-name="Caminho 480" d="M586.4,114.046l-17.409-9.119-24.041,3.73-4.974,21.969,12.382-.476,3.459-8.071v7.938l5.713-.22,3.316-12.85,2.073,13.679,20.31-.414Z" transform="translate(-115.462 -20.044)" fill="#2f2e41"/>
</svg>
