<svg xmlns="http://www.w3.org/2000/svg" xmlns:xlink="http://www.w3.org/1999/xlink" width="946" height="490" viewBox="0 0 946 490">
  <defs>
    <clipPath id="clip-path">
      <rect id="Retângulo_499" data-name="Retângulo 499" width="946" height="490" transform="translate(88 1176)" fill="#fff" stroke="#707070" stroke-width="1"/>
    </clipPath>
  </defs>
  <g id="Grupo_de_máscara_49" data-name="Grupo de máscara 49" transform="translate(-88 -1176)" clip-path="url(#clip-path)">
    <g id="undraw_progressive_app_m9ms" transform="translate(134.602 1176)">
      <circle id="Elipse_54" data-name="Elipse 54" cx="44.35" cy="44.35" r="44.35" transform="translate(140.428 346.25)" fill="#f2f2f2"/>
      <circle id="Elipse_55" data-name="Elipse 55" cx="44.35" cy="44.35" r="44.35" transform="translate(147.639 339.759)" fill="#3cb3de"/>
      <rect id="Retângulo_500" data-name="Retângulo 500" width="548.733" height="1.497" transform="translate(227.706 335.036)" fill="#3f3d56"/>
      <path id="Caminho_589" data-name="Caminho 589" d="M534.664,105.84H339.9v-4.014H251.584v4.014H56.015A13.174,13.174,0,0,0,42.84,119.014V385.709a13.175,13.175,0,0,0,13.174,13.174h478.65a13.175,13.175,0,0,0,13.174-13.174V119.014a13.174,13.174,0,0,0-13.174-13.174Z" transform="translate(-22.769 -91.876)" fill="#3f3d56"/>
      <rect id="Retângulo_501" data-name="Retângulo 501" width="469.673" height="264.944" transform="translate(37.734 37.246)" fill="#3cb3de"/>
      <circle id="Elipse_56" data-name="Elipse 56" cx="4.817" cy="4.817" r="4.817" transform="translate(267.352 20.386)" fill="#3cb3de"/>
      <path id="Caminho_590" data-name="Caminho 590" d="M373.089,302.19H37.735V37.246Z" opacity="0.1"/>
      <circle id="Elipse_57" data-name="Elipse 57" cx="45.146" cy="45.146" r="45.146" transform="translate(66.078 192.071)" fill="#f2f2f2"/>
      <rect id="Retângulo_502" data-name="Retângulo 502" width="43.873" height="9.167" transform="translate(381.757 180.133)" fill="#3f3d56"/>
      <rect id="Retângulo_503" data-name="Retângulo 503" width="149.952" height="3.929" transform="translate(328.717 108.758)" fill="#3f3d56"/>
      <rect id="Retângulo_504" data-name="Retângulo 504" width="149.952" height="3.929" transform="translate(328.717 121.199)" fill="#3f3d56"/>
      <rect id="Retângulo_505" data-name="Retângulo 505" width="149.952" height="3.929" transform="translate(328.717 133.641)" fill="#3f3d56"/>
      <rect id="Retângulo_506" data-name="Retângulo 506" width="149.952" height="3.929" transform="translate(328.717 146.082)" fill="#3f3d56"/>
      <rect id="Retângulo_507" data-name="Retângulo 507" width="149.952" height="3.929" transform="translate(328.717 158.524)" fill="#3f3d56"/>
      <rect id="Retângulo_508" data-name="Retângulo 508" width="18.335" height="18.335" transform="translate(460.335 42.621)" fill="#f2f2f2"/>
      <path id="Caminho_591" data-name="Caminho 591" d="M509.951,161.345H487.688V139.081h22.264Zm-21.3-.968h20.328V140.049H488.656Z" transform="translate(-22.769 -91.876)" fill="#3f3d56"/>
      <path id="Caminho_592" data-name="Caminho 592" d="M561.027,389.249H515.189v-3.3a.655.655,0,0,0-.655-.655H498.819a.655.655,0,0,0-.655.655v3.3h-9.822v-3.3a.655.655,0,0,0-.655-.655H471.972a.655.655,0,0,0-.655.655v3.3H461.5v-3.3a.655.655,0,0,0-.655-.655H445.124a.655.655,0,0,0-.655.655v3.3h-9.822v-3.3a.655.655,0,0,0-.655-.655H418.277a.655.655,0,0,0-.655.655v3.3H407.8v-3.3a.655.655,0,0,0-.655-.655H391.429a.655.655,0,0,0-.655.655v3.3h-9.822v-3.3a.655.655,0,0,0-.655-.655H364.582a.655.655,0,0,0-.655.655v3.3h-9.822v-3.3a.655.655,0,0,0-.655-.655H230.345a.655.655,0,0,0-.655.655v3.3h-9.822v-3.3a.655.655,0,0,0-.655-.655H203.5a.655.655,0,0,0-.655.655v3.3h-9.822v-3.3a.655.655,0,0,0-.655-.655H176.65a.655.655,0,0,0-.655.655v3.3h-9.822v-3.3a.655.655,0,0,0-.655-.655H149.8a.655.655,0,0,0-.655.655v3.3h-9.822v-3.3a.655.655,0,0,0-.655-.655H122.955a.655.655,0,0,0-.655.655v3.3h-9.822v-3.3a.655.655,0,0,0-.655-.655H96.108a.655.655,0,0,0-.655.655v3.3H85.631v-3.3a.655.655,0,0,0-.655-.655H69.261a.655.655,0,0,0-.655.655v3.3H38.484a15.715,15.715,0,0,0-15.716,15.716v7.106a15.715,15.715,0,0,0,15.715,15.715H561.027a15.716,15.716,0,0,0,15.716-15.715v-7.106a15.716,15.716,0,0,0-15.715-15.715Z" transform="translate(-22.769 -91.876)" fill="#3f3d56"/>
      <path id="Caminho_593" data-name="Caminho 593" d="M144.921,357.292A56.895,56.895,0,1,1,201.816,300.4a56.895,56.895,0,0,1-56.895,56.895Zm0-112.292a55.4,55.4,0,1,0,55.4,55.4,55.4,55.4,0,0,0-55.4-55.4Z" transform="translate(-22.769 -91.876)" fill="#3f3d56"/>
      <rect id="Retângulo_509" data-name="Retângulo 509" width="190.896" height="1.497" transform="translate(438.815 24.362)" fill="#3f3d56"/>
      <rect id="Retângulo_510" data-name="Retângulo 510" width="548.733" height="1.497" transform="translate(304.065 419.63)" fill="#3f3d56"/>
      <rect id="Retângulo_511" data-name="Retângulo 511" width="190.896" height="1.497" transform="translate(144.237 488.502)" fill="#3f3d56"/>
      <rect id="Retângulo_512" data-name="Retângulo 512" width="20.961" height="20.961" transform="translate(352.597 411.737)" fill="#3cb3de"/>
      <path id="Caminho_594" data-name="Caminho 594" d="M409.053,512.6H383.6V487.143h25.453Zm-24.346-1.107h23.239V488.25H384.707Z" transform="translate(-22.769 -91.876)" fill="#3f3d56"/>
      <rect id="Retângulo_513" data-name="Retângulo 513" width="20.961" height="20.961" transform="translate(595.896 16.469)" fill="#3cb3de"/>
      <path id="Caminho_595" data-name="Caminho 595" d="M652.352,117.329H626.9V91.876h25.453Zm-24.346-1.107h23.239V92.983H628.006Z" transform="translate(-22.769 -91.876)" fill="#3f3d56"/>
      <rect id="Retângulo_514" data-name="Retângulo 514" width="20.961" height="20.961" transform="translate(807.005 411.737)" fill="#3cb3de"/>
      <path id="Caminho_596" data-name="Caminho 596" d="M863.458,512.6H838V487.143h25.453Zm-24.346-1.107h23.24V488.25h-23.24Z" transform="translate(-22.769 -91.876)" fill="#3f3d56"/>
      <path id="Caminho_597" data-name="Caminho 597" d="M814.184,265.523H812.4V216.742a28.233,28.233,0,0,0-28.233-28.233H680.818a28.233,28.233,0,0,0-28.233,28.233V484.357a28.233,28.233,0,0,0,28.233,28.233H784.167A28.233,28.233,0,0,0,812.4,484.357V300.246h1.781Z" transform="translate(-22.769 -91.876)" fill="#3f3d56"/>
      <path id="Caminho_598" data-name="Caminho 598" d="M806.391,218.4V485.627a21.086,21.086,0,0,1-21.085,21.088H681.459a21.084,21.084,0,0,1-21.081-21.085V218.4a21.083,21.083,0,0,1,21.079-21.081h12.6a10.016,10.016,0,0,0,9.275,13.8h59.208a10.016,10.016,0,0,0,9.275-13.8h13.49A21.083,21.083,0,0,1,806.391,218.4Z" transform="translate(-22.769 -91.876)" fill="#3cb3de"/>
      <rect id="Retângulo_515" data-name="Retângulo 515" width="30.935" height="9.167" transform="translate(695.147 281.642)" fill="#3f3d56"/>
      <rect id="Retângulo_516" data-name="Retângulo 516" width="105.734" height="3.929" transform="translate(657.747 210.267)" fill="#3f3d56"/>
      <rect id="Retângulo_517" data-name="Retângulo 517" width="105.734" height="3.929" transform="translate(657.747 222.708)" fill="#3f3d56"/>
      <rect id="Retângulo_518" data-name="Retângulo 518" width="105.734" height="3.929" transform="translate(657.747 235.15)" fill="#3f3d56"/>
      <rect id="Retângulo_519" data-name="Retângulo 519" width="105.734" height="3.929" transform="translate(657.747 247.591)" fill="#3f3d56"/>
      <rect id="Retângulo_520" data-name="Retângulo 520" width="105.734" height="3.929" transform="translate(657.747 260.032)" fill="#3f3d56"/>
      <rect id="Retângulo_521" data-name="Retângulo 521" width="18.335" height="18.335" transform="translate(695.973 158.091)" fill="#f2f2f2"/>
      <path id="Caminho_599" data-name="Caminho 599" d="M725.761,254.552v22.264h22.264V254.552Zm21.3,21.3H726.726V255.518h20.332Z" transform="translate(-22.769 -91.876)" fill="#3f3d56"/>
      <path id="Caminho_600" data-name="Caminho 600" d="M806.391,457.089v28.537a21.086,21.086,0,0,1-21.085,21.088H681.459a21.084,21.084,0,0,1-21.081-21.085V341.736l87.49,69.119,1.5,1.183,16.275,12.854,1.52,1.205Z" transform="translate(-22.769 -91.876)" opacity="0.1"/>
      <circle id="Elipse_58" data-name="Elipse 58" cx="32.84" cy="32.84" r="32.84" transform="translate(668.791 340.498)" fill="#f2f2f2"/>
      <path id="Caminho_601" data-name="Caminho 601" d="M262.453,581.876a65.129,65.129,0,1,1,65.129-65.129A65.129,65.129,0,0,1,262.453,581.876Zm0-128.761a63.632,63.632,0,1,0,63.632,63.632A63.632,63.632,0,0,0,262.453,453.114Z" transform="translate(-22.769 -91.876)" fill="#3f3d56"/>
      <path id="Caminho_602" data-name="Caminho 602" d="M734.079,490.545a41.174,41.174,0,1,1,41.174-41.174A41.174,41.174,0,0,1,734.079,490.545Zm0-80.85a39.676,39.676,0,1,0,39.676,39.676,39.676,39.676,0,0,0-39.676-39.676Z" transform="translate(-22.769 -91.876)" fill="#3f3d56"/>
    </g>
  </g>
</svg>
